HIERARCHY
ROOT Hips
{
	OFFSET -3.958830 18.904000 13.208200
	CHANNELS 6 Xposition Yposition Zposition Zrotation Yrotation Xrotation 
	JOINT LHipJoint
	{
		OFFSET 0.000000 0.000000 0.000000
		CHANNELS 3 Zrotation Yrotation Xrotation
		JOINT LeftUpLeg
		{
			OFFSET 1.800000 -1.400000 0.085000
			CHANNELS 3 Zrotation Yrotation Xrotation
			JOINT LeftLeg
			{
				OFFSET 2.215000 -6.000000 0.000000
				CHANNELS 3 Zrotation Yrotation Xrotation
				JOINT LeftFoot
				{
					OFFSET 2.500000 -6.900000 0.000000
					CHANNELS 3 Zrotation Yrotation Xrotation
					JOINT LeftToeBase
					{
						OFFSET 0.200000 -0.500000 1.950000
						CHANNELS 3 Zrotation Yrotation Xrotation
						End Site
						{
							OFFSET 0.000000 0.000000 0.000000
						}
					}
				}
			}
		}
	}
	JOINT RHipJoint
	{
		OFFSET 0.000000 0.000000 0.000000
		CHANNELS 3 Zrotation Yrotation Xrotation
		JOINT RightUpLeg
		{
			OFFSET -1.800000 -1.400000 0.085000
			CHANNELS 3 Zrotation Yrotation Xrotation
			JOINT RightLeg
			{
				OFFSET -2.215000 -6.000000 0.000000
				CHANNELS 3 Zrotation Yrotation Xrotation
				JOINT RightFoot
				{
					OFFSET -2.500000 -6.900000 0.000000
					CHANNELS 3 Zrotation Yrotation Xrotation
					JOINT RightToeBase
					{
						OFFSET -0.200000 -0.500000 1.950000
						CHANNELS 3 Zrotation Yrotation Xrotation
						End Site
						{
							OFFSET 0.000000 0.000000 0.000000
						}
					}
				}
			}
		}
	}
	JOINT LowerBack
	{
		OFFSET 0.000000 0.000000 0.000000
		CHANNELS 3 Zrotation Yrotation Xrotation
		JOINT Spine
		{
			OFFSET -0.087000 1.940000 -0.288900
			CHANNELS 3 Zrotation Yrotation Xrotation
			JOINT Spine1
			{
				OFFSET 0.000000 1.950000 0.060000
				CHANNELS 3 Zrotation Yrotation Xrotation
				JOINT Neck
				{
					OFFSET 0.000000 0.000000 0.000000
					CHANNELS 3 Zrotation Yrotation Xrotation
					JOINT Neck1
					{
						OFFSET 0.000000 1.600000 0.340000
						CHANNELS 3 Zrotation Yrotation Xrotation
						JOINT Head
						{
							OFFSET 0.000000 1.667000 -0.240000
							CHANNELS 3 Zrotation Yrotation Xrotation
							End Site
							{
								OFFSET 0.000000 0.000000 0.000000
							}
						}
					}
				}
				JOINT LeftShoulder
				{
					OFFSET 0.000000 0.000000 0.000000
					CHANNELS 3 Zrotation Yrotation Xrotation
					JOINT LeftArm
					{
						OFFSET 2.700000 1.550000 -0.730000
						CHANNELS 3 Zrotation Yrotation Xrotation
						JOINT LeftForeArm
						{
							OFFSET 5.450000 0.000000 0.000000
							CHANNELS 3 Zrotation Yrotation Xrotation
							JOINT LeftHand
							{
								OFFSET 3.450000 0.000000 0.000000
								CHANNELS 3 Zrotation Yrotation Xrotation
								JOINT LeftHandIndex1
								{
									OFFSET 0.750000 0.000000 0.000000
									CHANNELS 3 Zrotation Yrotation Xrotation
									End Site
									{
										OFFSET 0.000000 0.000000 0.000000
									}
								}
							}
						}
					}
				}
				JOINT RightShoulder
				{
					OFFSET 0.000000 0.000000 0.000000
					CHANNELS 3 Zrotation Yrotation Xrotation
					JOINT RightArm
					{
						OFFSET -2.700000 1.550000 -0.730000
						CHANNELS 3 Zrotation Yrotation Xrotation
						JOINT RightForeArm
						{
							OFFSET -5.450000 0.000000 0.000000
							CHANNELS 3 Zrotation Yrotation Xrotation
							JOINT RightHand
							{
								OFFSET -3.450000 0.000000 0.000000
								CHANNELS 3 Zrotation Yrotation Xrotation
								JOINT RightHandIndex1
								{
									OFFSET -0.750000 0.000000 0.000000
									CHANNELS 3 Zrotation Yrotation Xrotation
									End Site
									{
										OFFSET 0.000000 0.000000 0.000000
									}
								}
							}
						}
					}
				}
			}
		}
	}
}
MOTION
Frames: 10
Frame Time: 0.016667
-0.442250 17.058690 -1.463220 -4.752747 -63.907682 -0.376719 -15.186015 14.230704 2.986009 4.355954 -4.228220 -13.141778 5.018166 7.481364 52.057499 0.672593 8.651838 1.399196 0.607330 0.451000 0.686230 18.132954 -10.425399 3.163329 -6.069339 2.698251 -35.911365 -4.413537 -3.073998 23.921773 -0.136410 -2.275343 3.384746 0.179630 -0.237860 0.102290 -4.027183 -3.510691 -7.260820 12.380191 -10.241724 22.512688 -11.528374 -7.928998 2.848448 3.570397 -9.824897 -9.334277 -24.593845 22.618842 34.289240 -8.250210 15.770100 -11.181560 -19.087786 4.285298 -0.703026 -44.193099 3.987926 -8.610682 -0.151785 -20.207015 -1.193649 -3.443715 2.959063 0.476890 -0.171180 0.307130 0.099770 12.131055 -1.187351 6.162379 44.731241 -14.004238 -9.333908 124.399596 44.117961 56.813649 2.325923 -2.315799 -0.001000 0.034900 -0.305000 -0.194200 
-0.484610 17.066120 -1.491940 -4.808653 -61.916287 -0.136484 -15.171808 14.170467 3.096842 4.463771 -4.635087 -15.145126 5.322789 7.648932 53.949884 0.722971 8.963166 1.291358 0.562350 0.383430 0.667810 18.154529 -10.386082 3.138864 -6.442097 2.821985 -35.760273 -4.049937 -3.313869 25.049982 -0.131885 -2.434691 3.334297 0.143100 -0.231620 0.098520 -3.950350 -3.529692 -7.351724 12.585557 -9.866121 23.165398 -11.347512 -7.580135 1.573697 4.001259 -9.714529 -9.088531 -24.049407 22.524001 34.418471 -8.967640 15.957190 -10.181340 -18.967228 5.929232 -1.486887 -45.721792 4.179298 -8.994689 1.933873 -20.140917 -1.433180 -3.474117 2.924096 0.482910 -0.161900 0.286810 0.082440 11.134447 -2.730260 6.308982 47.728544 -15.187931 -9.033017 131.602676 43.902939 65.075866 2.302713 -2.345321 -0.020110 0.021510 -0.281450 -0.207470 
-0.524470 17.076400 -1.523280 -4.267265 -59.778184 -0.337790 -15.160647 14.129446 3.230298 4.307898 -4.915044 -16.906173 5.112844 8.027494 55.013499 0.785813 9.157018 1.232221 0.512050 0.322520 0.634870 18.166196 -10.358654 3.088269 -7.136526 2.773602 -35.334409 -3.561923 -3.496149 25.337978 -0.115630 -2.497528 3.328221 0.098340 -0.219280 0.089890 -3.805976 -3.578356 -7.463338 12.014913 -9.166697 23.706532 -10.715234 -7.061276 0.445019 4.348249 -9.497034 -8.961298 -23.197890 22.088788 34.984975 -9.270900 15.819100 -9.130470 -18.624107 7.425614 -1.984216 -47.449771 4.862513 -9.850359 3.522507 -21.796620 -1.682723 -3.478179 2.901551 0.475710 -0.158060 0.270550 0.073960 10.136648 -3.914179 6.458563 51.136345 -15.753555 -8.731657 137.873544 44.012288 73.955718 2.299920 -2.347807 -0.026380 0.015020 -0.262090 -0.202420 
-0.561550 17.101570 -1.544810 -4.123372 -57.638847 -0.246922 -15.145112 14.100724 3.339538 4.380091 -5.017924 -18.163451 4.237758 8.650047 54.986243 0.823123 9.202340 1.209330 0.490860 0.292670 0.620550 18.173212 -10.367411 3.028736 -7.731002 2.710368 -34.479405 -2.803919 -3.679473 25.154451 -0.109950 -2.512760 3.323234 0.063220 -0.231500 0.098770 -3.680885 -3.582312 -7.552098 11.607593 -8.361265 23.975056 -9.935628 -6.364915 -0.208496 4.597332 -9.206455 -8.874772 -22.274222 21.314775 36.033236 -9.459880 15.296300 -8.515720 -18.193427 8.625746 -2.359049 -49.274855 5.182477 -10.666069 4.206632 -23.560640 -1.878648 -3.462857 2.911183 0.470460 -0.168770 0.273720 0.066420 9.208595 -4.770596 6.609785 53.887134 -16.020337 -8.608243 143.279467 44.280608 82.620178 2.301080 -2.353827 -0.007110 -0.013150 -0.256350 -0.194310 
-0.596770 17.125430 -1.562550 -3.893733 -55.370792 -0.109477 -15.137545 14.034770 3.455638 4.651685 -5.094705 -19.307618 2.406699 9.724916 54.242519 0.837132 9.219611 1.197413 0.482630 0.279270 0.609110 18.176826 -10.378932 2.948623 -8.513396 2.550883 -33.468605 -1.813416 -3.871612 24.396668 -0.094868 -2.486935 3.343182 0.046660 -0.235970 0.098250 -3.571815 -3.539926 -7.624054 11.097580 -7.554136 23.690918 -8.989470 -5.702606 -0.405176 4.617820 -9.018711 -8.695814 -21.522224 20.597715 36.835901 -9.434860 14.682490 -8.133250 -17.194857 10.142976 -2.536313 -51.568934 5.683289 -11.844651 3.722147 -27.066980 -2.019719 -3.432750 2.926483 0.465300 -0.174990 0.270390 0.068390 8.145533 -5.810081 6.440901 55.870082 -15.447604 -8.228209 147.074544 44.676653 89.874840 2.290916 -2.354899 0.002200 -0.025400 -0.257540 -0.187760 
-0.626270 17.147940 -1.580470 -3.148333 -52.630918 -0.245800 -15.149179 13.959080 3.590460 4.802794 -5.210989 -20.340116 -0.145236 10.967349 52.593154 0.871523 9.133872 1.224857 0.482970 0.293880 0.584990 18.166717 -10.366452 2.851903 -9.764598 2.247404 -32.615074 -0.886223 -4.062697 23.687076 -0.084887 -2.497709 3.348847 0.035750 -0.233510 0.104790 -3.383380 -3.556861 -7.714471 9.621720 -6.620986 23.254650 -7.330264 -5.090881 -0.503329 4.341938 -8.787041 -8.453500 -20.534588 19.661074 37.156634 -8.865930 14.008670 -7.571550 -16.036195 11.759284 -2.413801 -53.527404 6.669606 -13.236309 1.433880 -32.066009 -1.751735 -3.381659 3.000615 0.431120 -0.176500 0.269230 0.085970 7.602325 -6.860352 6.035063 56.943640 -14.580615 -7.805863 150.053631 45.466300 96.638577 2.293772 -2.363400 0.034350 -0.048450 -0.273450 -0.157960 
-0.647340 17.163850 -1.594110 -2.829810 -48.873596 0.040656 -15.168557 13.850788 3.724023 5.235771 -5.432288 -21.461907 -2.809257 12.025899 50.478638 0.888046 9.003210 1.273245 0.469930 0.289080 0.555980 18.154379 -10.360546 2.743118 -11.156425 1.906313 -31.584922 0.284855 -4.393951 23.224275 -0.072615 -2.590013 3.330977 0.019700 -0.213760 0.111120 -3.212174 -3.527528 -7.795851 8.308300 -5.737332 22.331690 -5.560360 -4.483089 0.070539 4.034549 -8.181274 -8.267804 -18.655552 18.195575 37.514445 -8.127470 13.387090 -6.560920 -14.633103 12.893714 -2.035782 -54.970139 7.264526 -14.324873 -2.550336 -37.576336 -0.842013 -3.340005 3.105696 0.390510 -0.161170 0.252840 0.102620 6.878916 -7.774156 5.746790 57.877841 -13.730497 -7.876414 152.791549 46.988494 103.626910 2.282327 -2.356652 0.054620 -0.069270 -0.283840 -0.132410 
-0.663170 17.179480 -1.608210 -2.467542 -44.518864 0.381478 -15.204341 13.726619 3.848824 5.563982 -5.671901 -22.533390 -5.404032 12.795830 47.902630 0.894874 8.795397 1.355903 0.434340 0.264370 0.514170 18.127075 -10.374591 2.624368 -12.617187 1.501443 -30.323931 1.346154 -4.679255 22.447530 -0.045775 -2.692249 3.316974 -0.003820 -0.175010 0.121940 -3.016884 -3.445507 -7.866123 6.596581 -4.650886 21.164191 -3.634846 -3.732318 0.819891 3.730553 -7.090702 -7.904071 -15.746739 15.926216 37.612215 -7.847070 12.876860 -5.060040 -13.856119 13.618832 -1.618252 -54.891854 7.933906 -14.886699 -8.848632 -43.945107 1.342786 -3.318859 3.261932 0.327730 -0.119180 0.219860 0.116790 6.801990 -8.699991 5.401404 58.113917 -13.183159 -8.251404 155.840468 48.794363 111.292973 2.260587 -2.346460 0.069180 -0.093690 -0.286340 -0.105490 
-0.667530 17.190690 -1.625080 -2.460428 -39.458544 1.154326 -15.260271 13.570430 3.954420 5.881286 -5.996928 -23.834168 -7.381558 13.159718 45.573203 0.868525 8.608129 1.451622 0.361820 0.189070 0.459900 18.089449 -10.385092 2.515486 -13.934788 1.161306 -28.991677 2.516874 -5.017412 21.632858 -0.003878 -2.837682 3.299393 -0.038500 -0.091450 0.134240 -2.834976 -3.302407 -7.904362 5.029308 -3.388170 19.723868 -1.470196 -2.749497 1.712667 3.427158 -5.405122 -7.367619 -11.881059 12.771120 37.133345 -8.053930 12.181110 -3.274650 -13.354911 13.998962 -1.275755 -53.636853 7.989665 -14.228070 -18.633879 -50.510630 5.871952 -3.359305 3.427607 0.259200 -0.038450 0.156080 0.122740 7.018635 -9.823431 4.999429 57.746871 -12.995813 -9.009413 159.618518 50.838236 120.263012 2.205595 -2.318748 0.050450 -0.090980 -0.260150 -0.089170 
-0.655220 17.204830 -1.647640 -2.610510 -34.070373 2.007687 -15.329990 13.382757 4.049629 6.377491 -6.367554 -25.182108 -9.326370 13.459918 43.421099 0.795491 8.483578 1.504773 0.320630 0.136490 0.437260 18.053641 -10.365465 2.400813 -15.022184 0.903757 -27.689513 3.646830 -5.395485 21.100323 0.020481 -3.030074 3.242165 -0.043120 -0.025550 0.163000 -2.705512 -3.165981 -7.878807 3.787814 -2.430481 18.044564 0.512908 -2.051775 3.091439 3.058171 -3.696361 -6.738206 -8.436983 10.051996 36.424125 -8.701520 11.628680 -2.476210 -12.902107 14.006522 -0.954617 -52.029553 7.210717 -12.501948 -29.955477 -55.976857 12.432638 -3.433828 3.592920 0.209990 0.043560 0.098330 0.114210 7.425345 -10.866990 4.337203 56.641134 -12.195600 -9.731715 163.242106 53.481624 129.567475 2.116565 -2.298182 0.028400 -0.092320 -0.226340 -0.096710 
